<mxfile host="app.diagrams.net" modified="2023-04-21T12:52:02.970Z" agent="Mozilla/5.0 (Macintosh; Intel Mac OS X 10_15_7) AppleWebKit/537.36 (KHTML, like Gecko) Chrome/112.0.0.0 Safari/537.36" etag="5ZuNaIT4zz_tKd_EARRo" version="21.2.1" type="github">
  <diagram id="NRY2UUlVJpbcbGoeNsMv" name="第 1 页">
    <mxGraphModel dx="478" dy="306" grid="1" gridSize="10" guides="1" tooltips="1" connect="1" arrows="1" fold="1" page="1" pageScale="1" pageWidth="1169" pageHeight="827" math="0" shadow="0">
      <root>
        <mxCell id="0" />
        <mxCell id="1" parent="0" />
        <mxCell id="qNmLKSVKS78zrNaY29E4-15" value="" style="endArrow=none;html=1;rounded=0;fontFamily=Tahoma;fontSize=35;" parent="1" edge="1">
          <mxGeometry width="50" height="50" relative="1" as="geometry">
            <mxPoint x="160" y="280" as="sourcePoint" />
            <mxPoint x="480" y="280" as="targetPoint" />
          </mxGeometry>
        </mxCell>
        <mxCell id="qNmLKSVKS78zrNaY29E4-16" value="" style="endArrow=none;html=1;rounded=0;fontFamily=Tahoma;fontSize=35;" parent="1" edge="1">
          <mxGeometry width="50" height="50" relative="1" as="geometry">
            <mxPoint x="40" y="440" as="sourcePoint" />
            <mxPoint x="160" y="280" as="targetPoint" />
          </mxGeometry>
        </mxCell>
        <mxCell id="qNmLKSVKS78zrNaY29E4-17" value="" style="endArrow=none;html=1;rounded=0;fontFamily=Tahoma;fontSize=35;" parent="1" edge="1">
          <mxGeometry width="50" height="50" relative="1" as="geometry">
            <mxPoint x="130" y="320" as="sourcePoint" />
            <mxPoint x="450" y="320" as="targetPoint" />
          </mxGeometry>
        </mxCell>
        <mxCell id="qNmLKSVKS78zrNaY29E4-18" value="" style="endArrow=none;html=1;rounded=0;fontFamily=Tahoma;fontSize=35;" parent="1" edge="1">
          <mxGeometry width="50" height="50" relative="1" as="geometry">
            <mxPoint x="100" y="360" as="sourcePoint" />
            <mxPoint x="420" y="360" as="targetPoint" />
          </mxGeometry>
        </mxCell>
        <mxCell id="qNmLKSVKS78zrNaY29E4-19" value="" style="endArrow=none;html=1;rounded=0;fontFamily=Tahoma;fontSize=35;" parent="1" edge="1">
          <mxGeometry width="50" height="50" relative="1" as="geometry">
            <mxPoint x="70" y="400" as="sourcePoint" />
            <mxPoint x="390" y="400" as="targetPoint" />
          </mxGeometry>
        </mxCell>
        <mxCell id="qNmLKSVKS78zrNaY29E4-20" value="" style="endArrow=none;html=1;rounded=0;fontFamily=Tahoma;fontSize=35;" parent="1" edge="1">
          <mxGeometry width="50" height="50" relative="1" as="geometry">
            <mxPoint x="40" y="440" as="sourcePoint" />
            <mxPoint x="360" y="440" as="targetPoint" />
          </mxGeometry>
        </mxCell>
        <mxCell id="qNmLKSVKS78zrNaY29E4-21" value="" style="endArrow=none;html=1;rounded=0;fontFamily=Tahoma;fontSize=35;" parent="1" edge="1">
          <mxGeometry width="50" height="50" relative="1" as="geometry">
            <mxPoint x="120" y="440" as="sourcePoint" />
            <mxPoint x="240" y="280" as="targetPoint" />
          </mxGeometry>
        </mxCell>
        <mxCell id="qNmLKSVKS78zrNaY29E4-22" value="" style="endArrow=none;html=1;rounded=0;fontFamily=Tahoma;fontSize=35;" parent="1" edge="1">
          <mxGeometry width="50" height="50" relative="1" as="geometry">
            <mxPoint x="200" y="440" as="sourcePoint" />
            <mxPoint x="320" y="280" as="targetPoint" />
          </mxGeometry>
        </mxCell>
        <mxCell id="qNmLKSVKS78zrNaY29E4-23" value="" style="endArrow=none;html=1;rounded=0;fontFamily=Tahoma;fontSize=35;" parent="1" edge="1">
          <mxGeometry width="50" height="50" relative="1" as="geometry">
            <mxPoint x="360" y="440" as="sourcePoint" />
            <mxPoint x="480" y="280" as="targetPoint" />
          </mxGeometry>
        </mxCell>
        <mxCell id="qNmLKSVKS78zrNaY29E4-24" value="" style="endArrow=none;html=1;rounded=0;fontFamily=Tahoma;fontSize=35;" parent="1" edge="1">
          <mxGeometry width="50" height="50" relative="1" as="geometry">
            <mxPoint x="280" y="440" as="sourcePoint" />
            <mxPoint x="400" y="280" as="targetPoint" />
          </mxGeometry>
        </mxCell>
        <mxCell id="qNmLKSVKS78zrNaY29E4-25" value="" style="endArrow=none;html=1;rounded=0;fontFamily=Tahoma;fontSize=35;" parent="1" edge="1">
          <mxGeometry width="50" height="50" relative="1" as="geometry">
            <mxPoint x="719" y="280" as="sourcePoint" />
            <mxPoint x="1039" y="280" as="targetPoint" />
          </mxGeometry>
        </mxCell>
        <mxCell id="qNmLKSVKS78zrNaY29E4-26" value="" style="endArrow=none;html=1;rounded=0;fontFamily=Tahoma;fontSize=35;" parent="1" edge="1">
          <mxGeometry width="50" height="50" relative="1" as="geometry">
            <mxPoint x="599" y="440" as="sourcePoint" />
            <mxPoint x="719" y="280" as="targetPoint" />
          </mxGeometry>
        </mxCell>
        <mxCell id="qNmLKSVKS78zrNaY29E4-27" value="" style="endArrow=none;html=1;rounded=0;fontFamily=Tahoma;fontSize=35;" parent="1" edge="1">
          <mxGeometry width="50" height="50" relative="1" as="geometry">
            <mxPoint x="689" y="320" as="sourcePoint" />
            <mxPoint x="1009" y="320" as="targetPoint" />
          </mxGeometry>
        </mxCell>
        <mxCell id="qNmLKSVKS78zrNaY29E4-28" value="" style="endArrow=none;html=1;rounded=0;fontFamily=Tahoma;fontSize=35;" parent="1" edge="1">
          <mxGeometry width="50" height="50" relative="1" as="geometry">
            <mxPoint x="659" y="360" as="sourcePoint" />
            <mxPoint x="979" y="360" as="targetPoint" />
          </mxGeometry>
        </mxCell>
        <mxCell id="qNmLKSVKS78zrNaY29E4-29" value="" style="endArrow=none;html=1;rounded=0;fontFamily=Tahoma;fontSize=35;" parent="1" edge="1">
          <mxGeometry width="50" height="50" relative="1" as="geometry">
            <mxPoint x="629" y="400" as="sourcePoint" />
            <mxPoint x="949" y="400" as="targetPoint" />
          </mxGeometry>
        </mxCell>
        <mxCell id="qNmLKSVKS78zrNaY29E4-30" value="" style="endArrow=none;html=1;rounded=0;fontFamily=Tahoma;fontSize=35;" parent="1" edge="1">
          <mxGeometry width="50" height="50" relative="1" as="geometry">
            <mxPoint x="599" y="440" as="sourcePoint" />
            <mxPoint x="919" y="440" as="targetPoint" />
          </mxGeometry>
        </mxCell>
        <mxCell id="qNmLKSVKS78zrNaY29E4-31" value="" style="endArrow=none;html=1;rounded=0;fontFamily=Tahoma;fontSize=35;" parent="1" edge="1">
          <mxGeometry width="50" height="50" relative="1" as="geometry">
            <mxPoint x="679" y="440" as="sourcePoint" />
            <mxPoint x="799" y="280" as="targetPoint" />
          </mxGeometry>
        </mxCell>
        <mxCell id="qNmLKSVKS78zrNaY29E4-32" value="" style="endArrow=none;html=1;rounded=0;fontFamily=Tahoma;fontSize=35;" parent="1" edge="1">
          <mxGeometry width="50" height="50" relative="1" as="geometry">
            <mxPoint x="759" y="440" as="sourcePoint" />
            <mxPoint x="879" y="280" as="targetPoint" />
          </mxGeometry>
        </mxCell>
        <mxCell id="qNmLKSVKS78zrNaY29E4-33" value="" style="endArrow=none;html=1;rounded=0;fontFamily=Tahoma;fontSize=35;" parent="1" edge="1">
          <mxGeometry width="50" height="50" relative="1" as="geometry">
            <mxPoint x="919" y="440" as="sourcePoint" />
            <mxPoint x="1039" y="280" as="targetPoint" />
          </mxGeometry>
        </mxCell>
        <mxCell id="qNmLKSVKS78zrNaY29E4-34" value="" style="endArrow=none;html=1;rounded=0;fontFamily=Tahoma;fontSize=35;" parent="1" edge="1">
          <mxGeometry width="50" height="50" relative="1" as="geometry">
            <mxPoint x="839" y="440" as="sourcePoint" />
            <mxPoint x="959" y="280" as="targetPoint" />
          </mxGeometry>
        </mxCell>
        <mxCell id="qNmLKSVKS78zrNaY29E4-45" value="" style="endArrow=none;html=1;rounded=0;fontFamily=Tahoma;fontSize=35;" parent="1" edge="1">
          <mxGeometry width="50" height="50" relative="1" as="geometry">
            <mxPoint x="320" y="640" as="sourcePoint" />
            <mxPoint x="640" y="640" as="targetPoint" />
          </mxGeometry>
        </mxCell>
        <mxCell id="qNmLKSVKS78zrNaY29E4-46" value="" style="endArrow=none;html=1;rounded=0;fontFamily=Tahoma;fontSize=35;" parent="1" edge="1">
          <mxGeometry width="50" height="50" relative="1" as="geometry">
            <mxPoint x="200" y="800" as="sourcePoint" />
            <mxPoint x="320" y="640" as="targetPoint" />
          </mxGeometry>
        </mxCell>
        <mxCell id="qNmLKSVKS78zrNaY29E4-48" value="" style="endArrow=none;html=1;rounded=0;fontFamily=Tahoma;fontSize=35;" parent="1" edge="1">
          <mxGeometry width="50" height="50" relative="1" as="geometry">
            <mxPoint x="260" y="720" as="sourcePoint" />
            <mxPoint x="580" y="720" as="targetPoint" />
          </mxGeometry>
        </mxCell>
        <mxCell id="qNmLKSVKS78zrNaY29E4-50" value="" style="endArrow=none;html=1;rounded=0;fontFamily=Tahoma;fontSize=35;" parent="1" edge="1">
          <mxGeometry width="50" height="50" relative="1" as="geometry">
            <mxPoint x="200" y="800" as="sourcePoint" />
            <mxPoint x="520" y="800" as="targetPoint" />
          </mxGeometry>
        </mxCell>
        <mxCell id="qNmLKSVKS78zrNaY29E4-52" value="" style="endArrow=none;html=1;rounded=0;fontFamily=Tahoma;fontSize=35;" parent="1" edge="1">
          <mxGeometry width="50" height="50" relative="1" as="geometry">
            <mxPoint x="360" y="800" as="sourcePoint" />
            <mxPoint x="480" y="640" as="targetPoint" />
          </mxGeometry>
        </mxCell>
        <mxCell id="qNmLKSVKS78zrNaY29E4-53" value="" style="endArrow=none;html=1;rounded=0;fontFamily=Tahoma;fontSize=35;" parent="1" edge="1">
          <mxGeometry width="50" height="50" relative="1" as="geometry">
            <mxPoint x="520" y="800" as="sourcePoint" />
            <mxPoint x="640" y="640" as="targetPoint" />
          </mxGeometry>
        </mxCell>
        <mxCell id="qNmLKSVKS78zrNaY29E4-55" value="" style="endArrow=classic;html=1;rounded=0;fontFamily=Tahoma;fontSize=35;strokeWidth=6;" parent="1" edge="1">
          <mxGeometry width="50" height="50" relative="1" as="geometry">
            <mxPoint x="210" y="450" as="sourcePoint" />
            <mxPoint x="310" y="620" as="targetPoint" />
          </mxGeometry>
        </mxCell>
        <mxCell id="qNmLKSVKS78zrNaY29E4-56" value="" style="endArrow=classic;html=1;rounded=0;fontFamily=Tahoma;fontSize=35;strokeWidth=6;" parent="1" edge="1">
          <mxGeometry width="50" height="50" relative="1" as="geometry">
            <mxPoint x="640" y="620" as="sourcePoint" />
            <mxPoint x="760" y="450" as="targetPoint" />
          </mxGeometry>
        </mxCell>
        <mxCell id="sdUMbr3ruynzmEGTiV5S-11" value="" style="ellipse;whiteSpace=wrap;html=1;aspect=fixed;fillColor=#fff2cc;strokeColor=#d6b656;" vertex="1" parent="1">
          <mxGeometry x="600" y="170" width="30" height="30" as="geometry" />
        </mxCell>
        <mxCell id="sdUMbr3ruynzmEGTiV5S-12" value="" style="ellipse;whiteSpace=wrap;html=1;aspect=fixed;fillColor=#fff2cc;strokeColor=#d6b656;" vertex="1" parent="1">
          <mxGeometry x="615" y="170" width="30" height="30" as="geometry" />
        </mxCell>
        <mxCell id="sdUMbr3ruynzmEGTiV5S-13" value="" style="ellipse;whiteSpace=wrap;html=1;aspect=fixed;fillColor=#fff2cc;strokeColor=#d6b656;" vertex="1" parent="1">
          <mxGeometry x="630" y="170" width="30" height="30" as="geometry" />
        </mxCell>
        <mxCell id="sdUMbr3ruynzmEGTiV5S-14" value="" style="ellipse;whiteSpace=wrap;html=1;aspect=fixed;fillColor=#fff2cc;strokeColor=#d6b656;" vertex="1" parent="1">
          <mxGeometry x="645" y="170" width="30" height="30" as="geometry" />
        </mxCell>
        <mxCell id="sdUMbr3ruynzmEGTiV5S-15" value="" style="ellipse;whiteSpace=wrap;html=1;aspect=fixed;fillColor=#fff2cc;strokeColor=#d6b656;" vertex="1" parent="1">
          <mxGeometry x="685" y="60" width="30" height="30" as="geometry" />
        </mxCell>
        <mxCell id="sdUMbr3ruynzmEGTiV5S-16" value="" style="ellipse;whiteSpace=wrap;html=1;aspect=fixed;fillColor=#fff2cc;strokeColor=#d6b656;" vertex="1" parent="1">
          <mxGeometry x="699" y="60" width="30" height="30" as="geometry" />
        </mxCell>
        <mxCell id="sdUMbr3ruynzmEGTiV5S-17" value="" style="ellipse;whiteSpace=wrap;html=1;aspect=fixed;fillColor=#fff2cc;strokeColor=#d6b656;" vertex="1" parent="1">
          <mxGeometry x="655" y="110" width="30" height="30" as="geometry" />
        </mxCell>
        <mxCell id="sdUMbr3ruynzmEGTiV5S-18" value="" style="ellipse;whiteSpace=wrap;html=1;aspect=fixed;fillColor=#fff2cc;strokeColor=#d6b656;" vertex="1" parent="1">
          <mxGeometry x="670" y="110" width="30" height="30" as="geometry" />
        </mxCell>
        <mxCell id="sdUMbr3ruynzmEGTiV5S-19" value="" style="ellipse;whiteSpace=wrap;html=1;aspect=fixed;fillColor=#fff2cc;strokeColor=#d6b656;" vertex="1" parent="1">
          <mxGeometry x="685" y="110" width="30" height="30" as="geometry" />
        </mxCell>
        <mxCell id="sdUMbr3ruynzmEGTiV5S-20" value="" style="ellipse;whiteSpace=wrap;html=1;aspect=fixed;fillColor=#fff2cc;strokeColor=#d6b656;" vertex="1" parent="1">
          <mxGeometry x="526" y="60" width="30" height="30" as="geometry" />
        </mxCell>
        <mxCell id="sdUMbr3ruynzmEGTiV5S-21" value="" style="ellipse;whiteSpace=wrap;html=1;aspect=fixed;fillColor=#fff2cc;strokeColor=#d6b656;" vertex="1" parent="1">
          <mxGeometry x="540" y="60" width="30" height="30" as="geometry" />
        </mxCell>
        <mxCell id="sdUMbr3ruynzmEGTiV5S-22" value="" style="ellipse;whiteSpace=wrap;html=1;aspect=fixed;fillColor=#fff2cc;strokeColor=#d6b656;" vertex="1" parent="1">
          <mxGeometry x="556" y="110" width="30" height="30" as="geometry" />
        </mxCell>
        <mxCell id="sdUMbr3ruynzmEGTiV5S-23" value="" style="ellipse;whiteSpace=wrap;html=1;aspect=fixed;fillColor=#fff2cc;strokeColor=#d6b656;" vertex="1" parent="1">
          <mxGeometry x="571" y="110" width="30" height="30" as="geometry" />
        </mxCell>
        <mxCell id="sdUMbr3ruynzmEGTiV5S-24" value="" style="ellipse;whiteSpace=wrap;html=1;aspect=fixed;fillColor=#fff2cc;strokeColor=#d6b656;" vertex="1" parent="1">
          <mxGeometry x="586" y="110" width="30" height="30" as="geometry" />
        </mxCell>
        <mxCell id="sdUMbr3ruynzmEGTiV5S-32" value="" style="endArrow=classic;html=1;rounded=0;exitX=0.5;exitY=1;exitDx=0;exitDy=0;entryX=0.5;entryY=0;entryDx=0;entryDy=0;" edge="1" parent="1" source="sdUMbr3ruynzmEGTiV5S-21" target="sdUMbr3ruynzmEGTiV5S-22">
          <mxGeometry width="50" height="50" relative="1" as="geometry">
            <mxPoint x="720" y="270" as="sourcePoint" />
            <mxPoint x="770" y="220" as="targetPoint" />
          </mxGeometry>
        </mxCell>
        <mxCell id="sdUMbr3ruynzmEGTiV5S-33" value="" style="endArrow=classic;html=1;rounded=0;exitX=0.5;exitY=1;exitDx=0;exitDy=0;" edge="1" parent="1" source="sdUMbr3ruynzmEGTiV5S-24" target="sdUMbr3ruynzmEGTiV5S-12">
          <mxGeometry width="50" height="50" relative="1" as="geometry">
            <mxPoint x="565" y="100" as="sourcePoint" />
            <mxPoint x="581" y="120" as="targetPoint" />
          </mxGeometry>
        </mxCell>
        <mxCell id="sdUMbr3ruynzmEGTiV5S-34" value="" style="endArrow=classic;html=1;rounded=0;exitX=0.5;exitY=0;exitDx=0;exitDy=0;entryX=0.5;entryY=1;entryDx=0;entryDy=0;" edge="1" parent="1" source="sdUMbr3ruynzmEGTiV5S-14" target="sdUMbr3ruynzmEGTiV5S-18">
          <mxGeometry width="50" height="50" relative="1" as="geometry">
            <mxPoint x="575" y="110" as="sourcePoint" />
            <mxPoint x="591" y="130" as="targetPoint" />
          </mxGeometry>
        </mxCell>
        <mxCell id="sdUMbr3ruynzmEGTiV5S-35" value="" style="endArrow=classic;html=1;rounded=0;exitX=0.5;exitY=0;exitDx=0;exitDy=0;entryX=0.5;entryY=1;entryDx=0;entryDy=0;" edge="1" parent="1" source="sdUMbr3ruynzmEGTiV5S-19" target="sdUMbr3ruynzmEGTiV5S-16">
          <mxGeometry width="50" height="50" relative="1" as="geometry">
            <mxPoint x="585" y="120" as="sourcePoint" />
            <mxPoint x="601" y="140" as="targetPoint" />
          </mxGeometry>
        </mxCell>
      </root>
    </mxGraphModel>
  </diagram>
</mxfile>
